<?xml version="1.0" encoding="UTF-8" standalone="no"?>
<svg
   xmlns:dc="http://purl.org/dc/elements/1.1/"
   xmlns:cc="http://creativecommons.org/ns#"
   xmlns:rdf="http://www.w3.org/1999/02/22-rdf-syntax-ns#"
   xmlns:svg="http://www.w3.org/2000/svg"
   xmlns="http://www.w3.org/2000/svg"
   xmlns:sodipodi="http://sodipodi.sourceforge.net/DTD/sodipodi-0.dtd"
   xmlns:inkscape="http://www.inkscape.org/namespaces/inkscape"
   viewBox="0 -269 1000 1000"
   id="svg2"
   sodipodi:version="0.32"
   inkscape:version="0.46"
   width="553.56909"
   height="794.95612"
   sodipodi:docname="azhar.svg"
   inkscape:output_extension="org.inkscape.output.svg.inkscape"
   version="1.0">
  <metadata
     id="metadata11">
    <rdf:RDF>
      <cc:Work
         rdf:about="">
        <dc:format>image/svg+xml</dc:format>
        <dc:type
           rdf:resource="http://purl.org/dc/dcmitype/StillImage" />
      </cc:Work>
    </rdf:RDF>
  </metadata>
  <defs
     id="defs9">
    <inkscape:perspective
       sodipodi:type="inkscape:persp3d"
       inkscape:vp_x="0 : 526.18109 : 1"
       inkscape:vp_y="0 : 1000 : 0"
       inkscape:vp_z="744.09448 : 526.18109 : 1"
       inkscape:persp3d-origin="372.04724 : 350.78739 : 1"
       id="perspective13" />
  </defs>
  <sodipodi:namedview
     inkscape:window-height="577"
     inkscape:window-width="640"
     inkscape:pageshadow="2"
     inkscape:pageopacity="0.0"
     guidetolerance="10.0"
     gridtolerance="10.0"
     objecttolerance="10.0"
     borderopacity="1.0"
     bordercolor="#666666"
     pagecolor="#ffffff"
     id="base"
     showgrid="false"
     inkscape:zoom="0.58619588"
     inkscape:cx="276.78455"
     inkscape:cy="375.15698"
     inkscape:window-x="0"
     inkscape:window-y="0"
     inkscape:current-layer="svg2" />
  <g
     transform="matrix(1.3288328,0,0,-1.3288328,3.6125198,590.53659)"
     id="g4">
    <path
       fill="currentColor"
       d="M 402.31,32.8086 L 666.386,131.7686 C 673.53834,146.9747 647.2327,152.4034 635.3606,146.211 L 394.2896,33.166 C 384.77105,30.08885 367.4537,29.83788 355.5054,33.520492 L 106.8574,147.81649 C 84.6836,156.12215 65.6006,145.85165 83.5879,133.90829 L 352.4759,31.650292 C 368.8812,26.656152 382.7884,26.209862 402.3109,32.808492 L 402.3109,32.808492 L 402.31,32.8086 z M 407.483,320.062 L 405.87851,403.5102 C 394.10991,412.60395 383.41171,413.6733 363.08461,412.60395 C 349.17641,395.48575 338.69591,360.94475 336.33751,320.06195 C 370.09631,326.41156 378.08651,325.06683 407.48301,320.06195 L 407.483,320.062 z M 396.785,538.845 C 382.0741,529.48465 379.033,490.1507 391.97055,479.2014 L 401.33188,478.93382 C 408.82016,485.88792 412.83188,523.86742 396.785,538.84492 L 396.785,538.845 z M 355.061,540.45 C 354.01217,538.10039 335.0014,509.6912 363.08541,485.8875 C 373.35401,499.1082 365.82174,526.1414 355.061,540.45 z M 406.413,419.558 C 415.55265,427.91347 416.19523,436.9301 405.34366,446.8383 C 381.69616,448.28361 346.50186,444.69865 338.47846,419.558 C 356.13076,424.37148 371.34176,427.39101 406.41306,419.558 L 406.413,419.558 z M 421.926,270.313 C 427.00998,280.22609 429.41526,289.0357 423.53147,304.5484 C 389.81667,324.2652 344.50417,309.48102 334.73357,275.6627 C 353.31657,279.10704 380.20237,287.9654 421.92597,270.31309 L 421.926,270.313 z M 406.413,30.6787 L 407.43937,-244.7163 L 587.75137,-185.9761 L 668.70157,122.4029 C 668.19376,123.23298 666.51895,126.01813 660.50137,123.47712 L 406.413,30.6787 z M 409.088,246.242 C 419.06456,251.2254 421.2032,256.9315 415.50695,263.3592 C 404.79695,268.24982 358.80485,287.9656 337.40835,253.73127 C 353.35655,259.07893 386.54605,261.66193 409.08805,246.24201 L 409.088,246.242 z M 402.134,199.169 L 402.134,240.3585 C 391.5979,246.57334 378.3342,251.5372 365.759,249.98643 C 336.9475,225.81163 341.6184,213.06553 338.4787,199.70423 C 358.2707,205.58802 380.2346,206.51478 402.134,199.16907 L 402.134,199.169 z M 231.493,116.791 C 249.9569,151.3955 275.5594,181.2588 321.1844,195.9775 L 321.89534,251.0566 C 316.18831,256.88765 312.4012,262.5371 305.31234,268.1738 C 301.56625,284.3076 303.63754,297.7607 304.243,306.1533 C 311.73128,313.1074 317.2108,316.07615 325.5164,318.1533 L 325.20487,403.4765 C 314.26057,415.666 298.88067,449.8544 340.89337,463.3183 C 331.98517,474.3994 327.06427,488.4843 327.06427,500.0527 C 327.06427,514.0927 332.13361,526.6904 336.45392,536.5097 L 339.30744,542.997 C 343.07404,551.73919 346.38752,561.787 346.51642,574.3613 C 346.91096,612.9756 333.03592,597.1572 333.03592,619.9238 C 333.03592,624.249 334.17264,629.57907 337.40799,634.3291 C 339.2283,637.40527 342.74783,638.27344 344.09451,634.06152 C 344.45682,627.47461 344.54862,617.04492 349.60623,614.22262 C 361.72053,607.77145 362.98123,622.60348 363.61893,634.06152 C 364.05448,637.46289 367.91971,638.33496 370.30545,634.3291 C 373.5408,629.5791 374.6785,624.249 374.6785,619.9238 C 374.6785,616.54685 373.82108,609.3281 368.1658,603.0361 C 356.2449,590.0644 360.96951,560.2509 368.40604,542.997 L 371.26053,536.5097 C 372.51248,533.664 373.80155,530.69232 375.00858,527.56634 C 376.21561,530.74798 377.49393,533.73919 378.71268,536.5097 L 381.5662,542.997 C 385.33378,551.73919 388.63261,561.787 388.76054,574.3613 C 389.15507,612.9756 375.28104,597.1572 375.28104,619.9238 C 375.28104,624.249 376.43143,629.57907 379.66678,634.3291 C 382.32596,638.13769 385.5574,638.0625 386.3533,634.06152 C 386.7156,627.47461 386.8074,617.04492 391.86502,614.22262 C 403.97932,607.77145 405.24102,622.60348 405.87872,634.06152 C 405.76544,636.35156 408.97052,640.49511 412.56524,634.3291 C 415.79962,629.5791 416.93731,624.249 416.93731,619.9238 C 416.93731,616.54685 416.07989,609.3281 410.42559,603.0361 C 398.50369,590.0644 403.22832,560.2509 410.66485,542.997 L 413.51934,536.5097 C 417.97832,526.374 422.90899,514.6357 422.90899,500.0527 C 422.90899,488.5224 415.96758,470.9922 407.02809,462.3652 C 444.65899,449.3447 426.39429,411.5761 419.35129,404.0117 L 419.03586,317.5263 C 429.22136,314.44525 436.51636,308.22161 439.57786,303.4784 C 439.57786,279.4071 440.11301,283.1513 437.97337,266.5692 C 433.47923,258.19518 425.75657,252.6454 416.04177,243.5672 L 415.52516,194.9852 C 467.38066,176.9823 489.81226,140.618 504.89236,109.8231 L 617.70736,174.5624 C 648.38506,187.286 653.01206,165.73623 651.40756,154.5028 C 657.28061,155.79186 666.22986,152.68346 669.65956,146.36706 C 671.26405,143.60339 673.47304,143.87097 674.31288,143.78015 L 722.55218,327.55115 L 620.91718,311.14585 C 609.14858,329.69075 615.51972,334.13705 619.13593,353.40565 C 623.35566,375.89005 612.74823,387.36365 575.98363,400.30015 C 675.72483,509.70515 452.72563,599.48515 374.85163,749.07115 C 296.97863,599.48515 66.490635,512.38115 166.23163,402.97515 C 129.46703,390.03865 116.54213,381.06105 120.76383,358.57675 C 123.50309,340.75055 132.48063,334.55525 121.29801,313.82085 L 19.663015,330.22515 L 67.902315,146.45515 C 68.742159,146.54597 70.951145,146.27839 72.555635,149.04206 C 75.985325,155.35847 84.934535,158.46686 90.807635,157.1778 C 89.203145,168.4112 93.830095,189.961 124.50783,177.2374 L 231.493,116.791 z M 344.897,31.2031 L 81.193,129.3506 C 75.07191,131.62892 73.50062,129.10646 72.9928,128.27638 L 152.8727,-175.28762 L 348.1057,-244.81692 L 344.897,31.2031 z M 148.045,404.579 C 119.1593,413.13857 89.7345,431.6229 89.6739,474.9413 C 89.6739,494.7255 96.65242,511.4823 104.1817,524.4022 C 165.2774,629.2272 334.3577,647.8142 375.2817,800.0002 C 416.8462,647.1682 585.9227,628.5762 647.0217,523.7552 C 654.55295,510.8353 661.5295,494.0784 661.5295,474.2943 C 661.46993,430.9759 625.1975,408.8588 596.3117,400.3002 C 609.1496,400.3002 644.84,390.1381 629.9689,357.7182 C 625.70035,348.41254 618.2375,335.9946 628.4064,324.3412 C 647.4875,326.50624 666.5724,329.20643 691.7472,333.88905 L 743.9503,343.59803 L 600.5913,-193.46397 L 375.9233,-268.35357 L 141.6263,-181.69537 L 0.0003,347.41063 L 52.2024,337.70067 C 77.3782,333.01805 96.4622,330.31883 115.5432,328.15282 C 130.8147,346.77392 74.6955,385.65082 148.0452,404.57962 L 148.0452,404.57962 L 148.045,404.579 z M 397.854,-11.3232 C 400.79638,-6.77632 400.17431,-3.63082 397.854,-0.8925 L 354.7925,-1.160078 C 350.92141,-4.913988 351.89211,-8.573168 355.32766,-11.323178 C 355.32766,-11.590756 397.85406,-11.323178 397.85406,-11.323178 L 397.854,-11.3232 z M 397.854,-198.012 C 400.79638,-193.46512 400.17431,-190.31962 397.854,-187.5813 L 355.3276,-187.84888 C 351.45651,-191.60279 352.42721,-195.26197 355.86276,-198.01198 C 355.86276,-198.27956 397.85396,-198.01198 397.85396,-198.01198 L 397.854,-198.012 z M 354.793,-17.7422 C 351.58402,-22.0215 351.31644,-31.6504 355.06058,-35.3955 C 371.64558,-35.291008 397.31938,-35.127922 397.58698,-35.127922 C 400.52936,-31.115222 401.3321,-22.824222 397.58698,-18.009722 L 354.793,-17.7422 z M 366.806,192.388 C 350.7816,192.388 272.2601,180.0638 240.855,110.639 L 370.578,35.7064 L 379.36609,35.551127 L 495.78509,104.59803 C 478.05849,137.73083 444.19329,192.38803 366.80609,192.38803 L 366.80609,192.38803 L 366.806,192.388 z M 99.3672,172.958 C 93.78322,168.333 95.08888,157.4473 107.39161,153.165 C 107.84376,153.00777 316.00361,55.5097 359.61661,34.495 C 361.39005,34.83582 363.19766,35.104375 365.02481,35.30457 L 123.43981,171.35257 C 113.24061,177.00589 104.38021,177.80667 99.36851,172.95706 L 99.3672,172.958 z M 385.435,34.9092 C 386.82953,34.710958 388.20453,34.479512 389.55023,34.217794 L 631.61623,149.95679 C 646.60453,155.85132 647.36423,165.65799 641.77933,170.28299 C 636.76761,175.1326 626.27733,173.61795 616.28523,167.60721 L 385.435,34.9092 z M 311.67,-31.1797 C 315.90047,-31.793958 315.84285,-39.14845 316.3077,-46.5459 C 317.44832,-64.7148 312.55282,-92.9287 311.43856,-117.6377 C 310.80086,-131.7695 310.43758,-143.1875 310.82821,-152.4512 C 317.89559,-178.6846 301.47762,-174.128 298.81751,-155.68362 C 295.90345,-129.74612 302.59095,-80.46582 303.55091,-51.49662 C 303.85364,-42.34623 304.10755,-31.05032 311.67005,-31.17922 L 311.67,-31.1797 z M 267.115,-173.106 C 257.61207,-179.51616 252.7566,-174.59819 259.28395,-164.30034 C 278.96265,-135.77884 279.03195,-93.55714 279.80345,-42.09734 C 278.93529,-19.21744 292.71065,-18.27994 291.93915,-42.526051 C 288.91181,-94.447951 291.14911,-138.23795 267.11495,-173.10605 L 267.115,-173.106 z M 264.46,-135.043 C 251.3653,-107.336 250.4034,-59.0762 249.7071,-28.819 C 249.95222,-10.82 260.919,-9.82 261.5098,-27.63931 C 261.32621,-66.96061 260.06253,-91.25841 272.1319,-127.37071 C 280.06354,-146.96351 271.23444,-147.57971 264.46002,-135.04259 L 264.46,-135.043 z M 225.217,-38.5566 C 237.6965,-39.004842 235.0793,-57.0195 225.217,-56.8505 C 215.1555,-56.677648 214.2482,-38.163 225.217,-38.5566 z M 182.728,-105.831 C 181.51511,-115.74604 183.07761,-121.3281 177.12155,-133.2724 C 170.34811,-142.21674 162.93895,-134.69037 167.03955,-127.66791 C 171.8374,-119.45209 172.63916,-102.50191 168.83447,-92.25871 C 165.70459,-79.51751 178.60205,-76.12391 183.61277,-94.91398 C 183.97898,-77.14738 199.10107,-75.39538 200.43117,-94.029214 C 200.81301,-80.506714 195.99562,-57.834914 193.64504,-40.916914 C 192.71145,-20.080014 204.01224,-26.164914 206.40774,-40.280195 C 210.54739,-64.667895 214.82571,-106.85829 206.77004,-116.2792 C 199.57766,-124.54385 186.45954,-114.56924 182.72804,-105.831 L 182.728,-105.831 z M 220.495,-97.5693 C 220.14832,-86.9218 232.9764,-83.1728 233.1835,-98.455042 C 233.36221,-124.58204 234.97549,-134.20704 227.57705,-147.14054 C 222.90225,-155.97745 208.83775,-154.22941 217.83975,-138.28898 C 222.64248,-130.62101 221.41787,-122.94038 220.49502,-97.569282 L 220.495,-97.5693 z M 264.46,20.1611 C 268.29887,24.72165 272.95219,31.3535 277.7383,26.06247 C 280.6758,20.93063 276.28908,18.74899 273.90236,14.84957 C 275.0381,4.64157 262.62896,5.54977 265.99709,13.56539 C 267.45314,15.30269 262.92678,17.72066 264.45998,20.16109 L 264.46,20.1611 z M 564.357,-85.3066 L 564.357,-85.3066 z M 566.553,-92.4912 C 560.93581,-81.9336 572.38015,-77.8506 577.5296,-88.30077 C 581.39581,-99.97457 587.25128,-115.55957 575.50714,-124.13087 C 570.38019,-127.35743 544.68094,-136.78617 537.98854,-133.2461 C 533.70534,-130.98048 535.16334,-123.88965 535.20534,-116.8115 L 540.80788,-34.2168 C 541.31081,-22.9277 550.07741,-18.8613 549.18972,-35.21387 L 544.00124,-123.02537 C 555.62234,-122.03514 560.33624,-119.13963 567.50324,-115.37498 C 576.27961,-110.33201 569.11164,-100.50388 566.55304,-92.49118 L 566.553,-92.4912 z M 563.899,-144.416 C 576.3785,-144.86327 573.7613,-162.8789 563.899,-162.7099 C 553.8375,-162.53705 552.9302,-144.0224 563.899,-144.416 z M 448.547,-81.5508 C 461.0265,-81.998066 458.4093,-100.0137 448.547,-99.8447 C 438.4855,-99.671848 437.5782,-81.1572 448.547,-81.5508 L 448.547,-81.5508 z M 446.751,-58.999 C 459.2305,-59.447242 456.6133,-77.4619 446.751,-77.2929 C 436.6895,-77.120048 435.7822,-58.6054 446.751,-58.999 z M 498.499,-133.005 C 496.15916,-114.8097 501.38377,-114.9161 505.0947,-112.9913 C 509.86423,-110.51767 517.0732,-113.48739 518.4658,-122.22568 C 520.00584,-131.88877 513.58982,-139.56648 506.8808,-142.38488 L 440.623,-170.72378 C 431.21187,-171.62124 429.3623,-166.46108 429.5996,-158.12218 C 430.91894,-144.98158 440.9824,-121.28528 454.1934,-131.40828 C 457.37113,-135.1534 459.17778,-140.72859 460.77934,-146.57528 C 462.89946,-141.20614 459.14067,-127.82328 466.96684,-123.42488 C 478.25394,-117.76472 481.18164,-115.26765 484.12994,-121.62898 C 486.89361,-128.00691 472.18654,-131.03523 471.15724,-134.20218 C 470.15333,-137.71585 470.88868,-142.02054 471.95607,-143.9805 L 498.499,-133.005 z M 446.118,-143.299 C 442.29573,-143.9074 440.85726,-147.96697 439.82308,-150.89666 C 437.92464,-156.27654 438.80062,-159.72186 444.72054,-157.00311 C 450.16097,-154.50409 454.13753,-153.10565 451.87972,-147.76971 C 450.8348,-145.29901 449.91683,-142.69451 446.118,-143.29901 L 446.118,-143.299 z"
       id="path6" />
  </g>
</svg>
